<?xml version="1.0" encoding="utf-8"?>
<!-- Generator: Adobe Illustrator 25.2.0, SVG Export Plug-In . SVG Version: 6.00 Build 0)  -->
<svg version="1.1" id="Layer_1" xmlns="http://www.w3.org/2000/svg" xmlns:xlink="http://www.w3.org/1999/xlink" x="0px" y="0px"
	 viewBox="0 0 250 400" style="enable-background:new 0 0 250 400;" xml:space="preserve">
<style type="text/css">
	.st0{fill:#FFFEF2;}
	.st1{fill:#4C4C4D;}
	.st2{opacity:0.15;}
	.st3{fill:#716B5F;}
	.st4{fill:#FFFFFF;}
</style>
<g>
	<g>
		<g>
			<g>
				<path class="st0" d="M16.79,86.39c0,0,39.63,1.04,43.7,1.35c4.08,0.31,40.3,4.65,47.03,5.1c6.74,0.45,70.56-0.49,74.63-1.94
					c4.07-1.45,56.6-2.82,56.6-2.82l4.82,0.96c0,0,0.67,109.37,0.96,113.51c0.29,4.13,4.71,91.97,3.18,95.96
					c-1.27,3.34-15.65,13.25-15.18,21.78c0.65,11.69,4.08,17.9-2.24,18.87c-12.21,1.89-92.41,7.13-121.8,6.25
					c-22.36-0.67-86.61-5.07-91.18-4.79c-4.57,0.27-6.23-1.62-6.23-1.62l1.77-6.48c-4.13-8.31-10.13-3.39-9.16-3.74
					c2.05-0.75,8.31-84.87,8.76-88.97c0.45-4.11,5.26-82.18,4.54-88.28C16.29,145.44,13.8,87.92,16.79,86.39z"/>
			</g>
			<g>
				<path class="st1" d="M248.62,292.97c-0.24-4.37-0.45-8.74-0.63-13.11c-0.34-8.28-0.56-16.57-0.66-24.86
					c-0.22-16.88-0.14-33.64-1.26-50.49c-2.59-38.91-0.94-78.15-0.65-117.12c0-0.63-0.56-1.26-1.22-1.22
					c-29.31,1.66-58.62,3.33-87.93,4.99c-14.66,0.83-29.34,2-44,0.68c-14.51-1.31-28.87-3.93-43.38-5.3
					c-16.59-1.56-33.24-2.2-49.9-1.99c-0.18,0-0.34,0.04-0.48,0.11c-0.59-0.04-1.19,0-1.8,0.14c-0.48,0.11-0.86,0.57-0.93,1.06
					c-0.1,0.15-0.18,0.33-0.2,0.54c-3.7,31.36,1.4,63.02,0.27,94.49c-1.13,31.61-5.67,62.95-9.17,94.34
					c-1.99,17.8-3.62,35.65-4.18,53.56c-0.02,0.71,0.58,1.16,1.22,1.22c2.74,0.28,5.47,0.56,8.21,0.83c0.05,0,0.09,0,0.13,0
					c-0.77,2.86-1.66,5.7-2.71,8.5c-0.21,0.57,0.24,1.41,0.85,1.5c37.22,5.56,74.91,5.06,112.43,6.14
					c9.69,0.28,19.35,0.85,29.05,0.48c9.19-0.35,18.34-1.28,27.46-2.34c9.41-1.09,18.8-2.32,28.24-3.2
					c7.28-0.68,14.63-0.65,21.89-1.41c1.79-0.19,4.2-0.23,5.31-1.87c1.3-1.9,0.17-5.08-0.18-7.1c-0.93-5.5-1.28-11.75-0.1-17.25
					c0.52-0.54,1.04-1.08,1.57-1.61c2.86-2.93,5.7-5.88,8.51-8.85c1.23-1.3,3.32-2.83,4.16-4.43
					C249.46,297.67,248.73,294.91,248.62,292.97z M11.93,328.4c-2.32-0.24-4.63-0.47-6.95-0.7c1.06-31.27,5.4-62.27,8.92-93.32
					c3.57-31.53,5.39-62.78,3.83-94.5c-0.69-14.05-1.41-28.12-0.66-42.15c2.37,31.03,4.08,62.12,4.4,93.24
					c0.34,32.85-1.28,65.54-3.89,98.28c-1.05,13.26-1.81,26.56-4.97,39.43C12.43,328.53,12.2,328.43,11.93,328.4z M232.06,337.59
					c-0.82,0.8-3.55,0.57-4.66,0.64c-16.16,1.1-32.16,2.59-48.26,4.45c-17.94,2.08-35.46,2.52-53.49,1.95
					c-17.65-0.55-35.31-0.69-52.96-1.25c-20.23-0.63-40.47-1.8-60.51-4.72c4.7-13.17,6.05-26.91,7.16-40.77
					c1.33-16.75,2.74-33.49,3.55-50.27c1.59-33.1,1.31-66.27-0.21-99.37c-0.85-18.47-2.09-36.92-3.54-55.35
					c5.32,29.31,5.56,59.18,5.96,88.91c0.37,27.27,1.45,54.52,2.21,81.78c0.43,15.7,0.69,31.41,0.75,47.12
					c-0.23,5.2-0.15,10.38,0.11,15.58c0.13,2.65,0.83,6.05,0.04,8.63c-0.23,0.76,0.4,1.55,1.18,1.55
					c33.97-0.18,67.93,0.31,101.9,0.67c17.16,0.18,34.33,0.31,51.49,0.28c12.23-0.02,24.5,0.15,34.83-7.52
					c4.97-3.69,9.46-8.15,13.82-12.63c-0.21,2.61-0.05,5.07,0.15,7.99c0.18,2.7,0.19,5.2,0.67,7.86
					C232.48,334.49,233.19,336.47,232.06,337.59z M239.3,305.65c-2.23,2.33-4.48,4.66-6.75,6.97c-0.17,0.09-0.31,0.23-0.41,0.42
					c-3.84,3.91-7.73,7.75-11.8,11.41c-1.95,1.75-3.98,3.24-6.09,4.52c4.83-7.35,7.35-15.53,6.76-24.56
					c4.95,0.96,10.64,2.1,15.29,0.22c2.69-1.09,5.29-2.5,7.8-4.04C242.5,302.28,240.9,303.98,239.3,305.65z M237.21,301.54
					c-5.44,2.61-11.46,1.26-17.21,0.19c-0.7-0.13-1.63,0.32-1.55,1.18c1.1,10.73-2.29,20.21-8.99,28.51
					c-5.73,2.46-11.97,3.52-18.69,3.55c-16.75,0.07-33.5-0.02-50.25-0.17c-36.55-0.34-73.1-0.93-109.66-0.76
					c0.26-2.18-0.1-4.58-0.2-6.66c-0.24-4.93-0.36-9.84-0.21-14.77c0.04-0.12,0.06-0.25,0.06-0.39c0-0.49-0.01-0.98-0.01-1.48
					c0-0.05,0-0.1,0-0.15c0-0.04,0-0.08-0.01-0.12c-0.11-27.16-0.97-54.29-1.83-81.43c-0.95-30.13-0.67-60.33-2.14-90.44
					c-0.85-17.33-2.59-34.61-6.06-51.62c14.28-0.13,28.56,0.35,42.8,1.51c14.59,1.19,29,3.55,43.53,5.22
					c14.67,1.69,29.19,1.04,43.89,0.2c14.65-0.83,29.31-1.66,43.96-2.5c16.11-0.91,32.22-1.83,48.33-2.74
					c-0.28,33.36-1.5,66.89-0.22,100.23c0.63,16.42,2.11,32.72,2.06,49.18c-0.05,15.97,0.25,31.95,1.01,47.9
					c0.1,2.07,0.2,4.14,0.32,6.21c0.06,1.03,0.04,2.13,0.18,3.15c0.01,0.09,0.09,0.43,0.18,0.82
					C243.51,298.12,240.42,300,237.21,301.54z"/>
			</g>
		</g>
		<g class="st2">
			<path class="st3" d="M177.8,103.46c-0.98-3.45-7.23-1.73-11.57-0.25c-2.44,0.04-4.89,0.08-7.33,0.15
				c-5.8,0.15-11.59,0.38-17.38,0.67c-11.58,0.58-23.14,1.46-34.68,2.59c-0.73,0.07-1.28,0.4-1.67,0.85
				c-0.44-0.04-0.88-0.07-1.32-0.11c-3.13-0.28-3.11,4.6,0,4.88c17.26,1.55,34.59,1.91,51.91,2.11c5.97,0.07,15.2,1.77,20.42-1.97
				C179.05,110.31,179.88,106.08,177.8,103.46z"/>
		</g>
	</g>
	<g>
		<g>
			<path class="st3" d="M174.12,100.07c-0.53-0.01-1.08-1.67-1.73-2c0.08-0.37,0.17-0.75,0.21-0.99c0.14-0.97,0.29-1.94,0.45-2.91
				c0.31-1.94,0.63-3.88,0.9-5.82c0.57-4.01,0.99-8.02,0.79-12.07c-0.09-1.8-1.62-3.91-3.67-3.67c-0.96,0.11-1.71,0.1-2.64-0.18
				c-0.89-0.27-1.84-0.13-2.63,0.29c-9.49-0.18-18.99-0.36-28.48-0.53c-0.9-0.02-1.66,0.28-2.24,0.76
				c-3.58-0.11-7.16-0.2-10.75-0.27c-1.86-0.34-2.87,0.1-4.77,0.65c-0.62,0.18-1.77-0.42-2.31-0.09c-1.97,0.11-4.09-0.17-6.06,0.11
				c-3.78,0.53-7.74,1.4-11.56,0.78c-1.48-0.24-2.9,0.04-3.85,1.31c-0.83,1.12-1.11,2.84-0.29,4.07c0.6,0.89,1.06,1.79,1.41,2.74
				c0.1,0.96,0.33,1.9,0.69,2.85c0,0.01,0,0.01,0,0.02l0,0c0.11,0.29,0.23,0.58,0.37,0.88c0.01,0.03,0.03,0.05,0.04,0.08
				c0.91,6.5,1.15,13.06,0.78,19.63c-0.11,1.98,1.18,2.89,3.08,2.89c0.31,0,0.94,0.23,1.22,0.16c0.4,0.15,1.7,0.04,2.14,0
				c11.56-0.95,22.54-0.62,34.15-0.37c5.67,0.12,11.26,0.33,16.91-0.38c5.72-0.72,11.42-1.56,17.13-2.34
				C176.58,105.22,177.74,100.16,174.12,100.07z M108.52,82.03c-0.17-0.36,0.27-0.32,0.01,0.03c0-0.01,0-0.03,0-0.04
				C108.55,81.75,108.54,81.76,108.52,82.03z"/>
		</g>
		<g>
			<g>
				<path class="st1" d="M156.68,105.41c0.31,0.33,0.38,0.74,0.32,1.17c-0.04,0.33,0.31,0.61,0.61,0.61c0.37,0,0.57-0.28,0.61-0.61
					c0.1-0.74-0.17-1.49-0.68-2.04C157.01,103.97,156.14,104.84,156.68,105.41L156.68,105.41z"/>
			</g>
		</g>
		<g>
			<g>
				<path class="st1" d="M116.68,106.25c-0.2,0.69-0.19,1.56,0.42,2.05c0.57,0.45,1.39,0.36,1.79-0.27
					c0.42-0.67-0.64-1.28-1.06-0.62c0.03-0.04,0.07-0.03,0.1-0.06c-0.02,0.01-0.06,0.03-0.07,0.01c0.06,0.01,0.06,0-0.02-0.02
					c0.01,0,0.02,0.01,0.03,0.01c-0.12-0.15,0.03,0.1-0.03-0.02c-0.12-0.24-0.07-0.51,0-0.76
					C118.08,105.81,116.9,105.49,116.68,106.25L116.68,106.25z"/>
			</g>
		</g>
		<g>
			<g>
				<path class="st1" d="M101.45,109.17c24.21-1.03,48.64,1.03,72.62-3.33c0.77-0.14,0.45-1.32-0.32-1.18
					c-23.86,4.33-48.2,2.26-72.29,3.28C100.66,107.98,100.66,109.2,101.45,109.17L101.45,109.17z"/>
			</g>
		</g>
		<g>
			<g>
				<path class="st1" d="M101.71,108.01c-1.38,0.45-2.33-0.77-2.55-1.99c-0.15-0.84-0.25-2.78,0.57-3.3
					c0.66-0.42,2.21-0.15,2.97-0.14c1.02,0.01,2.03-0.02,3.04-0.13c4.07-0.42,8-1.47,12.13-1.32c0.79,0.03,0.79-1.19,0-1.22
					c-3.14-0.12-6.15,0.39-9.24,0.9c-1.7,0.28-3.4,0.53-5.12,0.55c-1.34,0.01-2.8-0.21-4.1,0.18c-1.83,0.54-1.73,3.45-1.4,4.96
					c0.4,1.83,2.13,3.32,4.04,2.69C102.78,108.95,102.46,107.76,101.71,108.01L101.71,108.01z"/>
			</g>
		</g>
		<g>
			<g>
				<path class="st1" d="M123.05,101.63c9-0.69,18.02-0.96,27.04-0.82c0.79,0.01,0.79-1.21,0-1.22c-9.02-0.14-18.04,0.13-27.04,0.82
					C122.27,100.47,122.26,101.69,123.05,101.63L123.05,101.63z"/>
			</g>
		</g>
		<g>
			<g>
				<path class="st1" d="M154.83,100.61c4.52,0.02,9.04,0.04,13.56,0.05c1.11,0,2.21,0.01,3.32,0.01c1.1,0,2.49-0.28,3.36,0.44
					c1.1,0.9,0.66,2.75-0.7,3.24c-0.61,0.22-1.2,0.15-1.8,0.47c-0.69,0.37-0.08,1.43,0.62,1.06c0.85-0.46,1.92-0.17,2.72-0.76
					c0.73-0.54,0.87-1.43,0.94-2.29c0.15-1.85-0.53-3.25-2.51-3.37c-3.17-0.18-6.39-0.03-9.57-0.04c-3.32-0.01-6.63-0.03-9.95-0.04
					C154.04,99.38,154.04,100.61,154.83,100.61L154.83,100.61z"/>
			</g>
		</g>
		<g>
			<g>
				<path class="st1" d="M98.33,102.14c-0.05,0.05-0.1,0.1-0.15,0.15c-0.23,0.23-0.24,0.64,0,0.86c0.24,0.22,0.62,0.24,0.86,0
					c0.05-0.05,0.1-0.1,0.15-0.15c0.23-0.23,0.24-0.64,0-0.86C98.95,101.92,98.57,101.9,98.33,102.14L98.33,102.14z"/>
			</g>
		</g>
		<g>
			<g>
				<path class="st1" d="M100.08,102.26c-0.29-8.21-1.9-16.27-3.71-24.26c-0.08-0.37-0.44-1.37-0.35-1.66
					c0.28-0.84,1.21-1.03,1.93-1.05c1.1-0.02,2.2-0.05,3.3-0.09c2.1-0.07,4.2-0.16,6.3-0.29c4.3-0.25,8.59-0.61,12.87-1.07
					c0.77-0.08,0.78-1.31,0-1.22c-4.78,0.52-9.57,0.91-14.37,1.15c-2.4,0.12-4.8,0.21-7.2,0.27c-1.4,0.03-3.13-0.18-3.83,1.35
					c-0.68,1.48,0.36,3.74,0.69,5.22c0.51,2.3,0.99,4.61,1.42,6.93c0.9,4.86,1.55,9.76,1.73,14.71
					C98.89,103.05,100.11,103.05,100.08,102.26L100.08,102.26z"/>
			</g>
		</g>
		<g>
			<g>
				<path class="st1" d="M125.34,73.08c7.33,0.08,14.67-0.02,22-0.28c0.78-0.03,0.79-1.25,0-1.22c-7.33,0.27-14.66,0.36-22,0.28
					C124.55,71.85,124.55,73.08,125.34,73.08L125.34,73.08z"/>
			</g>
		</g>
		<g>
			<g>
				<path class="st1" d="M151.45,72.99c3.94-0.37,7.89-0.5,11.84-0.35c1.97,0.07,3.95,0.21,5.91,0.42c1.11,0.12,2.27,0.2,3.37,0.42
					c1.23,0.24,1.44,0.73,1.41,1.92c-0.25,7.98-1.19,16-1.84,23.95c-0.06,0.78,1.16,0.78,1.22,0c0.38-4.59,0.74-9.18,1.09-13.77
					c0.17-2.2,0.33-4.39,0.49-6.59c0.12-1.6,0.77-3.96,0.02-5.47c-0.61-1.22-2.14-1.24-3.32-1.4c-2.18-0.29-4.37-0.5-6.57-0.62
					c-4.54-0.26-9.09-0.16-13.61,0.26C150.67,71.84,150.66,73.06,151.45,72.99L151.45,72.99z"/>
			</g>
		</g>
		<g>
			<path class="st4" d="M155.73,101.95c-1.68-2.92-2.25-4.55-3.36-7.48c-1.38-3.65-3.37-7.46-4.24-11.29
				c-0.89-3.87,1.71-7.37,3.08-10.8c1.75-4.39,1.1-8.63-0.83-12.85c-0.8-1.75-1.71-3.21-3.45-4.16c-1.94-1.06-4.16-1.69-6.33-2.01
				c-4.23-0.62-8.61-0.02-12.46,1.89c-3.24,1.61-6.06,4.36-7.43,7.73c-1.61,3.95-0.44,7.63,1.24,11.32
				c0.87,1.92,1.77,3.86,1.63,6.02c-0.18,2.74-1.24,5.54-1.93,8.19l-4.31,16.51c-0.7,2.67,3.43,3.8,4.12,1.14
				c1.23-4.72,2.46-9.44,3.69-14.15c0.56-2.16,1.13-4.32,1.69-6.49c0.58-2.24,1.2-4.52,0.97-6.85c-0.38-3.8-3.01-6.83-3.58-10.55
				c-0.5-3.26,1.6-6.23,4.15-8.04c3.05-2.17,6.94-2.96,10.64-2.63c1.8,0.16,3.66,0.62,5.3,1.39c1.89,0.89,2.58,3.06,3.17,4.96
				c0.58,1.87,1.41,3.9,0.88,5.81c-0.53,1.91-1.42,4.06-2.22,5.86c-1.61,3.6-3.05,6.6-1.67,10.41c1.41,3.88,3.95,7.19,5.12,11.17
				c1.1,3.76,2.01,7.36,5.27,9.85c0.92,0.71,1.88,0.31,2.43-0.6C157.93,105.21,156.46,103.21,155.73,101.95z"/>
		</g>
		<g>
			<g>
				<path class="st1" d="M117.73,107.41c2.03-8.82,4.96-17.44,6.66-26.34c0.26-1.35,0.1-2.76-0.61-3.95
					c-1.15-1.92-2.21-3.85-2.86-6.01c-1.33-4.42-0.47-8.88,2.59-12.37c2.85-3.26,7.42-4.53,11.63-4.97
					c4.41-0.46,8.99,0.12,12.18,3.44c2.94,3.06,4.29,6.75,4.09,11c-0.2,4.18-3.49,7.41-3.76,11.51c-0.15,2.24,0.64,4.29,1.37,6.36
					c0.83,2.33,1.5,4.7,2.26,7.05c1.43,4.43,3.26,8.64,5.47,12.73c0.37,0.69,1.43,0.08,1.06-0.62c-2.25-4.17-4.08-8.47-5.52-12.98
					c-0.69-2.17-1.32-4.36-2.09-6.51c-0.86-2.42-1.8-4.84-1.08-7.44c0.55-1.97,1.72-3.78,2.47-5.67c0.8-2.01,1.14-4,1.03-6.17
					c-0.2-3.79-1.54-6.99-4.1-9.78c-2.83-3.09-6.42-4.24-10.57-4.28c-4.12-0.04-8.53,0.89-12.21,2.77
					c-3.26,1.66-5.84,5.85-6.47,9.35c-0.72,3.96,0.51,7.92,2.39,11.38c0.65,1.19,1.52,2.25,1.63,3.65c0.11,1.31-0.39,2.76-0.68,4.03
					c-0.59,2.63-1.26,5.24-1.96,7.84c-1.4,5.21-2.89,10.39-4.1,15.65C116.38,107.85,117.56,108.18,117.73,107.41L117.73,107.41z"/>
			</g>
		</g>
		<g>
			<g>
				<path class="st1" d="M116.63,106.98c0.5,1.44,1.49,1.64,2.98,1.2c1.63-0.47,2.25-2.06,2.86-3.5c0.93-2.19,1.41-4.69,2.07-6.97
					c0.7-2.41,1.39-4.83,2.09-7.24c0.71-2.46,1.51-4.91,2.17-7.39c0.47-1.77,0.65-3.66-0.21-5.34c-2-3.94-4.77-7.45-3.63-12.15
					c0.61-2.54,1.52-4.36,3.86-5.68c1.96-1.11,4.15-1.81,6.39-2.04c4.38-0.45,9.26,0.79,11.5,4.84c1.28,2.32,1.93,4.62,1.28,7.25
					c-0.56,2.27-1.78,4.32-3.07,6.25c-2.37,3.55-0.97,8.53,0.33,12.25c1.64,4.66,3.54,9.4,5.82,13.78c1.12,2.16,4.38,8.37,7.24,4.51
					c0.47-0.63-0.59-1.24-1.06-0.62c-1.7,2.29-4.13-2.67-4.78-3.85c-1.12-2.05-2.02-4.21-2.92-6.37c-1.65-3.94-3.57-7.92-4.37-12.14
					c-0.47-2.47-0.49-5.01,0.93-7.16c1.15-1.75,2.22-3.59,2.85-5.6c1.15-3.69,0.17-7.23-2.07-10.3c-2.06-2.83-5.78-3.92-9.14-4.12
					c-3.55-0.21-7.16,0.74-10.18,2.62c-2.93,1.83-4.21,5.55-4.13,8.92c0.09,3.96,2.48,6.8,4.09,10.21c1.17,2.48-0.23,5.42-0.94,7.84
					c-0.77,2.61-1.52,5.22-2.27,7.84c-0.76,2.62-1.51,5.25-2.29,7.87c-0.38,1.28-0.76,2.53-1.38,3.72
					c-0.36,0.68-0.56,1.13-1.38,1.39c-0.69,0.22-1.25,0.33-1.48-0.35C117.56,105.92,116.38,106.23,116.63,106.98L116.63,106.98z"/>
			</g>
		</g>
	</g>
</g>
</svg>
